<svg id="Layer_1" data-name="Layer 1" xmlns="http://www.w3.org/2000/svg" viewBox="0 0 145.73 145.73"><defs><style>.cls-1{fill:#231f20;}.cls-2{fill:none;}</style></defs><title>Gletalica SVG</title><path class="cls-1" d="M100,0V20.83h45.77V.05Zm25,25V45.8h20.79V25.06Zm0,50V95.75h20.79V75Zm-9.81-25,13.21,13.21-7.54,7.53h24.92V50Zm1.43,25L95.83,95.75h24.88V75Zm-25,25L70.84,120.72H95.73V100Zm-25,25-3.39,3.39-3.4-3.4H25v20.77H70.75V125ZM50,120.72h5.6L50,115.13ZM0,100v20.75H45.77v-9.82L34.83,100Zm100,0v20.74h45.77V100Zm25,25v20.77h20.79V124.94Zm-50,0v20.77h45.74V125Zm-74,0v20.76H21.71V124.94Z"/><rect class="cls-1" x="99.97" y="0.04" width="45.76" height="20.79"/><polygon class="cls-1" points="145.72 25.06 145.73 45.8 124.94 45.8 124.95 25.06 145.72 25.06"/><polygon class="cls-1" points="145.73 50.03 145.73 70.78 120.81 70.77 128.35 63.23 115.14 50.03 145.73 50.03"/><polygon class="cls-1" points="145.72 75.01 145.73 95.75 124.94 95.75 124.95 75.01 145.72 75.01"/><rect class="cls-1" x="99.97" y="99.98" width="45.76" height="20.74"/><rect class="cls-1" x="124.95" y="124.95" width="20.78" height="20.77"/><polygon class="cls-1" points="95.74 0.04 95.74 20.84 85.92 20.82 65.13 0.04 66.15 0.04 95.74 0.04"/><polygon class="cls-1" points="120.72 25.06 120.72 45.81 110.91 45.8 90.13 25.02 120.72 25.06"/><polygon class="cls-1" points="120.72 75.01 120.71 95.75 95.83 95.75 116.57 75.01 120.72 75.01"/><polygon class="cls-1" points="95.74 99.98 95.73 120.72 70.84 120.72 91.59 99.98 95.74 99.98"/><polygon class="cls-1" points="34.84 99.98 45.77 110.91 45.77 120.73 0 120.73 0.01 99.98 34.84 99.98"/><polygon class="cls-1" points="0.01 65.17 5.61 70.77 0.01 70.77 0.01 65.17"/><polygon class="cls-1" points="25.02 90.17 30.59 95.73 25.02 95.75 25.02 90.17"/><polygon class="cls-1" points="9.82 74.98 20.79 85.94 20.79 95.75 0.01 95.75 0.01 75.01 9.82 74.98"/><polygon class="cls-1" points="50.01 115.13 55.6 120.72 50 120.72 50.01 115.13"/><polygon class="cls-1" points="70.75 124.95 70.75 145.73 25.02 145.72 25.03 124.95 59.82 124.94 63.22 128.34 66.61 124.95 70.75 124.95"/><rect class="cls-1" x="74.99" y="124.95" width="45.73" height="20.77"/><path class="cls-1" d="M96,62.77a1.82,1.82,0,0,0-2.57,0L62.57,93.57a1.81,1.81,0,0,0,0,2.58l.41.41a1.81,1.81,0,0,0,2.58,0L96.37,65.77a1.85,1.85,0,0,0,.53-1.29,1.81,1.81,0,0,0-.53-1.29Z"/><path class="cls-1" d="M.94,125v20.76H21.71V124.94Z"/><polygon class="cls-1" points="21.71 124.94 21.71 145.72 0.94 145.71 0.94 124.95 21.71 124.94"/><path class="cls-2" d="M0,59.2l.14.14L0,59.29Z"/><path class="cls-1" d="M59.11,0,93,33.88,33.84,93,.15,59.34,0,59.29v5.87l45.76,45.75L50,115.13l13.21,13.21,65.13-65.1L65.13,0Zm63.25,63.24L63.22,122.36,36.84,96,96,36.87Z"/></svg>