<svg id="Layer_1" data-name="Layer 1" xmlns="http://www.w3.org/2000/svg" viewBox="0 0 145.73 145.73"><defs><style>.cls-1{fill:#231f20;}.cls-2{fill:#fff;}</style></defs><title>Kosuljica SVG</title><path class="cls-1" d="M61,58.22h0l0,0ZM58.2,61l0,0v0Z"/><path class="cls-1" d="M61.37,85.83,4,73.91l-2-.42-2-.41v72.65H142.9L58.22,61Z"/><polygon class="cls-1" points="53.67 57.03 53.94 59.03 54.18 61.03 56.7 80.78 4.01 69.83 2.01 69.42 0.02 69 0.02 57.03 53.67 57.03"/><polygon class="cls-1" points="69.25 0 69.65 2 70.06 4 80.78 56.69 61.03 54.18 59.04 53.93 57.04 53.68 57.05 0 69.25 0"/><polygon class="cls-2" points="58.22 61.03 58.22 61.04 58.2 61.03 58.22 61.03"/><polygon class="cls-2" points="61.03 58.2 61.06 58.23 61.03 58.23 61.03 58.2"/><polygon class="cls-2" points="58.22 61.03 58.22 61.04 58.2 61.03 58.22 61.03"/><polygon class="cls-2" points="61.03 58.2 61.06 58.23 61.03 58.23 61.03 58.2"/><path class="cls-1" d="M73.32,0l.4,2,.41,2L85.81,61.37,61.06,58.22l84.67,84.67V0Zm51.49,42.16L108.4,58.57l-2.83-2.83L122,39.33Z"/></svg>