<svg id="Layer_1" data-name="Layer 1" xmlns="http://www.w3.org/2000/svg" viewBox="0 0 145.74 145.73"><defs><style>.cls-1{fill:#231f20;}</style></defs><title>Valjak SVG</title><path class="cls-1" d="M58.12,113a4.72,4.72,0,0,1-6.67,0l-9.83-9.83-4.34,4.34a5.49,5.49,0,0,0,0,7.76L51.62,129.6a5.49,5.49,0,0,0,7.75,0L95.91,93.07l49.83,49.83V0H61.58L85.76,24.19,24.2,85.75,0,61.58l0,84.15H142.91l-47-47L62.2,132.44a9.5,9.5,0,0,1-13.41,0L34.45,118.1a9.51,9.51,0,0,1,0-13.42l4.34-4.34-8.42-8.41a4.73,4.73,0,0,1,0-6.69L50,65.57,65.57,50,85.25,30.36a4.73,4.73,0,0,1,6.69,0l8.41,8.41L103.18,36,106,38.78l-2.83,2.83L113,51.44a4.72,4.72,0,0,1,0,6.67Z"/><polygon class="cls-1" points="65.57 44.38 65.57 50.04 50.04 65.57 44.38 65.57 65.57 44.38"/></svg>